<?xml version="1.0" encoding="utf-8"?>
<!-- Svg Vector Icons : http://www.onlinewebfonts.com/icon -->
<!DOCTYPE svg PUBLIC "-//W3C//DTD SVG 1.1//EN" "http://www.w3.org/Graphics/SVG/1.1/DTD/svg11.dtd">
<svg version="1.1" xmlns="http://www.w3.org/2000/svg" xmlns:xlink="http://www.w3.org/1999/xlink" x="0px" y="0px" viewBox="0 0 256 256" enable-background="new 0 0 256 256" xml:space="preserve">
<metadata> Svg Vector Icons : http://www.onlinewebfonts.com/icon </metadata>
<g><g><g><path fill="#000000" d="M11.8,22.9L10,24.7l0.3,11.5c1.2,40.3,8.4,64.9,23.2,79.6c3.4,3.4,5,4.5,9.3,6.7c7.6,3.8,13.4,5.1,23,5.4c10.9,0.4,19.2-1.2,27.9-5.1l3.7-1.7l1,1.9c0.5,1.1,1.9,4.2,3,6.9c9.5,24,14.7,53,15.4,86.7c0.2,7.2,0.5,13.8,0.8,14.7c1.1,3.8,5.5,4.9,8.5,2.2l1.7-1.5l0.4-10c0.4-11.8,1-18.4,2.7-28.6c3.2-19.4,9-36.3,17.4-50.9l3.1-5.4l3.3,2.5c8.4,6.4,19.5,9.6,33,9.6c8.4,0,11.7-0.5,19-2.8c21-6.6,33.4-28,37.7-65.3c1-7.9,1.9-26.2,1.7-31.7c-0.2-4.2-0.3-4.4-1.9-5.8l-1.6-1.5h-7.4c-32,0-59.4,5.8-74.7,15.7c-8,5.2-12.6,10.2-16.2,17.3c-3.6,7.3-5.1,14.4-5.2,24c-0.1,7.2,0.4,8.8,2.8,10c3.2,1.7,3.9,1.3,12.1-7c10.8-10.8,21.9-19,34.4-25c3.4-1.6,4.5-2,5.9-1.7c2.6,0.5,4.3,2.2,4.6,4.6c0.4,3-0.9,4.2-8.5,8.1c-24.3,12.6-42.1,30.5-54.4,54.6c-4.1,8-7.4,16.1-9.9,24.4c-1,3.2-1.9,5.4-2,5c-0.2-0.4-0.8-3.5-1.3-6.8c-3.4-19.4-10.5-40.6-18.6-55.5c-8.6-15.8-21.5-31.1-34.1-40.3c-9.5-7-10.6-7.8-11-9.1c-0.9-2.3-0.6-3.8,1.2-5.5c2.4-2.4,4.7-2.4,8.2,0.2c1.4,1.1,5.3,3.9,8.7,6.4c10.3,7.5,20,17.9,27.3,29c1.6,2.4,3.4,4.7,4,5.2c2.6,1.9,6.9,0.2,7.8-3.1c1.2-4.2,1.7-13,1.1-19.2c-1.9-20.1-10.2-31.8-28.7-40.6c-15.5-7.4-39.1-11.5-65.8-11.5h-9L11.8,22.9z"/></g></g></g>
</svg>