<?xml version="1.0" encoding="utf-8"?>
<!-- Svg Vector Icons : http://www.onlinewebfonts.com/icon -->
<!DOCTYPE svg PUBLIC "-//W3C//DTD SVG 1.1//EN" "http://www.w3.org/Graphics/SVG/1.1/DTD/svg11.dtd">
<svg version="1.1" xmlns="http://www.w3.org/2000/svg" xmlns:xlink="http://www.w3.org/1999/xlink" x="0px" y="0px" viewBox="0 0 256 256" enable-background="new 0 0 256 256" xml:space="preserve">
<metadata> Svg Vector Icons : http://www.onlinewebfonts.com/icon </metadata>
<g><g><path fill="#000000" d="M185.7,128c0,31.9-25.8,57.7-57.7,57.7c-31.9,0-57.7-25.8-57.7-57.7c0-31.9,25.8-57.7,57.7-57.7C159.8,70.3,185.7,96.1,185.7,128z M128,52.2c3.2,0,5.8-2.6,5.8-5.8V15.8c0-3.2-2.6-5.8-5.8-5.8c-3.2,0-5.8,2.6-5.8,5.8v30.7C122.2,49.6,124.8,52.2,128,52.2z M128,203.8c-3.2,0-5.8,2.6-5.8,5.8v30.7c0,3.2,2.6,5.8,5.8,5.8c3.2,0,5.8-2.6,5.8-5.8v-30.7C133.8,206.4,131.2,203.8,128,203.8z M240.2,122.2h-30.7c-3.2,0-5.8,2.6-5.8,5.8c0,3.2,2.6,5.8,5.8,5.8h30.7c3.2,0,5.8-2.6,5.8-5.8C246,124.8,243.4,122.2,240.2,122.2z M52.2,128c0-3.2-2.6-5.8-5.8-5.8H15.8c-3.2,0-5.8,2.6-5.8,5.8c0,3.2,2.6,5.8,5.8,5.8h30.7C49.6,133.8,52.2,131.2,52.2,128z M185.7,76.1c1.5,0,2.9-0.6,4.1-1.7l21.7-21.7c2.2-2.2,2.2-5.9,0-8.1s-5.9-2.2-8.1,0l-21.7,21.7c-2.2,2.2-2.2,5.9,0,8.1C182.7,75.5,184.2,76.1,185.7,76.1z M66.3,181.6l-21.7,21.7c-2.2,2.2-2.2,5.9,0,8.1c1.1,1.1,2.6,1.7,4.1,1.7s2.9-0.6,4.1-1.7l21.7-21.7c2.2-2.2,2.2-5.9,0-8.1C72.2,179.3,68.5,179.3,66.3,181.6z M189.7,181.6c-2.2-2.2-5.9-2.2-8.1,0c-2.2,2.2-2.2,5.9,0,8.1l21.7,21.7c1.1,1.1,2.6,1.7,4.1,1.7s2.9-0.6,4.1-1.7c2.2-2.2,2.2-5.9,0-8.1L189.7,181.6z M66.3,74.4c1.1,1.1,2.6,1.7,4.1,1.7c1.5,0,2.9-0.6,4.1-1.7c2.2-2.2,2.2-5.9,0-8.1L52.7,44.6c-2.2-2.2-5.9-2.2-8.1,0c-2.2,2.2-2.2,5.9,0,8.1L66.3,74.4z M153.8,56.7c0.7,0.2,1.3,0.3,2,0.3c2.4,0,4.6-1.4,5.4-3.8l10.5-28.9c1.1-3-0.5-6.3-3.4-7.4c-3-1.1-6.3,0.5-7.4,3.4l-10.5,28.9C149.2,52.4,150.8,55.7,153.8,56.7z M102.2,199.3c-3-1.1-6.3,0.5-7.4,3.4l-10.5,28.9c-1.1,3,0.5,6.3,3.4,7.4c0.6,0.2,1.3,0.3,2,0.3c2.4,0,4.6-1.4,5.4-3.8l10.5-28.9C106.7,203.6,105.2,200.3,102.2,199.3z M235.5,160.8l-28.9-10.5c-3-1.1-6.3,0.5-7.4,3.4c-1.1,3,0.5,6.3,3.4,7.4l28.9,10.5c0.7,0.2,1.3,0.3,2,0.3c2.4,0,4.6-1.4,5.4-3.8C240,165.2,238.5,161.9,235.5,160.8z M20.5,95.2l28.9,10.5c0.6,0.2,1.3,0.3,2,0.3c2.4,0,4.6-1.4,5.4-3.8c1.1-3-0.5-6.3-3.5-7.4L24.4,84.4c-3-1.1-6.3,0.5-7.4,3.4C16,90.8,17.5,94.1,20.5,95.2z M196.6,95.9c1,2.1,3.1,3.3,5.2,3.3c0.8,0,1.7-0.2,2.4-0.6l27.8-13c2.9-1.3,4.1-4.8,2.8-7.7c-1.3-2.9-4.8-4.1-7.7-2.8l-27.8,13C196.5,89.5,195.3,93,196.6,95.9z M59.4,160.1c-1.3-2.9-4.8-4.1-7.6-2.8l-27.8,13c-2.9,1.3-4.1,4.8-2.8,7.7c1,2.1,3.1,3.3,5.2,3.3c0.8,0,1.7-0.2,2.4-0.5l27.8-13C59.5,166.5,60.7,163,59.4,160.1z M167.8,199.4c-1.3-2.9-4.8-4.1-7.7-2.8c-2.9,1.3-4.1,4.8-2.8,7.7l13,27.8c1,2.1,3.1,3.3,5.2,3.3c0.8,0,1.7-0.2,2.4-0.5c2.9-1.3,4.1-4.8,2.8-7.7L167.8,199.4z M88.2,56.6c1,2.1,3,3.3,5.2,3.3c0.8,0,1.6-0.2,2.4-0.6c2.9-1.3,4.1-4.8,2.8-7.7L85.6,23.9c-1.3-2.9-4.8-4.1-7.7-2.8c-2.9,1.3-4.1,4.8-2.8,7.7L88.2,56.6z"/></g></g>
</svg>