<?xml version="1.0" encoding="utf-8"?>
<!-- Svg Vector Icons : http://www.onlinewebfonts.com/icon -->
<!DOCTYPE svg PUBLIC "-//W3C//DTD SVG 1.1//EN" "http://www.w3.org/Graphics/SVG/1.1/DTD/svg11.dtd">
<svg version="1.1" xmlns="http://www.w3.org/2000/svg" xmlns:xlink="http://www.w3.org/1999/xlink" x="0px" y="0px" viewBox="0 0 256 256" enable-background="new 0 0 256 256" xml:space="preserve">
<metadata> Svg Vector Icons : http://www.onlinewebfonts.com/icon </metadata>
<g><g><g><path fill="#000000" d="M123.7,11.2c-1,0.7-2.3,1.9-2.9,2.7c-1.1,1.4-1.1,2.2-1.3,21.6l-0.2,20.1h-1.7c-2.4,0.1-10.4,1.8-14.9,3.4c-2.1,0.8-4,1.3-4,1.2c-0.1-0.1-2.7-4.7-5.9-10.3c-3.2-5.6-6.4-10.9-7.2-11.7c-2.8-3.1-6.9-3.8-10.5-1.8c-2.8,1.6-4.3,4.1-4.3,7.3c0,2.3,0.8,3.8,6.5,13.7l6.5,11.2l-1.4,1c-0.8,0.5-4.3,3.9-7.8,7.3c-3.5,3.5-6.4,6.4-6.5,6.4c-0.1,0-7.5-4.2-16.5-9.4c-16.3-9.4-16.3-9.4-19.1-9.2c-6.3,0.5-9.9,6.6-7.1,12c1.4,2.7,1,2.5,19.3,13c12.2,7.1,15.1,9,14.8,9.7c-1.7,3.9-3.5,10.2-4.3,14.6l-0.9,5.3L41,119.5c-12.4,0.2-13.3,0.2-14.7,1.3c-5.3,3.9-5.3,10.5,0,14.4c1.4,1.1,2.3,1.1,14.9,1.3l13.3,0.2l0.9,4.8c0.5,2.6,1.7,7.1,2.7,10.1c1,3,1.9,5.5,1.9,5.6c0,0.1-6.8,4.1-15.1,9c-18.2,10.5-17.9,10.2-19.3,13c-2.8,5.4,0.9,11.5,7.1,12c2.8,0.2,2.8,0.2,19.5-9.4l16.6-9.6l5.4,5.5c3,3,6.4,6.3,7.7,7.3l2.4,1.9l-6.3,10.8c-3.5,6-6.5,11.7-6.8,12.7c-1.6,5.6,4,11.3,9.9,10.2c3.3-0.6,5.2-3,11.9-14.5c3.7-6.4,6.6-10.9,7-10.8c4.7,1.8,16.4,4.6,19.1,4.6c0.3,0,0.5,9.2,0.6,20.3c0.2,19.7,0.2,20.4,1.3,21.9c3.9,5.3,10.5,5.3,14.4,0c1.1-1.5,1.1-2.2,1.3-22l0.2-20.5l3.9-0.7c3.2-0.5,11.9-3.2,14.9-4.5c0.6-0.3,2.4,2.3,7.5,11.2c3.6,6.3,7.1,12,7.7,12.7c5.1,5.5,14.6,1.7,14.6-5.9c0-2.3-0.8-3.8-6.8-14.3c-3.8-6.4-6.9-12-6.9-12.3c-0.1-0.3,3.1-3.7,6.9-7.6l7-7l17.6,10.1c18.8,10.8,19.4,11.1,23.4,9.4c2.3-1,4.6-3.6,5-6c0.4-2.4-0.5-5.6-2.1-7.4c-0.6-0.8-7.3-4.9-14.9-9.2c-7.5-4.3-15.3-8.8-17.2-9.9l-3.6-2.1l1.6-4.6c0.9-2.5,2-6.8,2.5-9.5l1-4.9l14.8-0.3c13.9-0.3,14.9-0.3,16.3-1.4c5.3-3.9,5.3-10.5,0-14.4c-1.4-1.1-2.3-1.1-16.3-1.3c-14.6-0.2-14.7-0.2-14.9-1.3c-0.2-0.6-0.5-2.7-0.9-4.7c-0.4-1.9-1.3-5.7-2.3-8.5c-0.9-2.8-1.5-5.1-1.4-5.2c0.1-0.1,7.8-4.6,17.1-9.9c9.3-5.4,17.4-10.3,18.1-11.1c5-5.6,1-14.2-6.7-14.2c-1.7,0-5,1.7-18.9,9.8c-9.3,5.3-17.2,9.8-17.6,9.9c-0.5,0.2-1.8-1-3.5-3.1c-1.5-1.8-4.6-5-6.9-7.2l-4.2-3.9l6.9-12c6.1-10.6,6.9-12.2,6.9-14.4c0-3.2-1.8-6.1-4.6-7.5c-2.6-1.3-4.9-1.3-7.7,0c-2.5,1.2-2.7,1.5-9.7,13.7c-2.8,5-5.5,9.7-6,10.3l-0.7,1.1l-4-1.5c-3.3-1.3-9.8-3.1-14.7-4.1l-1.2-0.2l-0.2-20.1c-0.2-19.4-0.2-20.2-1.3-21.6c-1.9-2.6-4.4-3.9-7.2-3.9C126.3,10,124.9,10.4,123.7,11.2z M140.3,74c15.9,4.2,28.8,14.8,35.9,29.6c6.1,12.5,7.3,26.1,3.4,39.2c-8.5,29.3-38.5,46.2-67.8,38.2c-5.2-1.4-13.1-5.1-17.5-8.3c-7.3-5.3-14.6-14.2-18.4-22.5c-3.9-8.6-5.6-20.9-4.3-30.3c3.5-23.7,21.5-42.4,45.3-46.9C122.9,71.8,134,72.3,140.3,74z"/><path fill="#000000" d="M124.6,85.4c-1.1,1-1.1,2.6-0.1,3.6c0.4,0.4,2.5,0.9,4.7,1.1c5.6,0.5,8.3,1.2,13.6,3.8c7.8,3.8,13.6,9.5,17.4,17.2c2.4,4.9,3.8,10.1,3.8,14.2c0,3.8,0.6,4.9,3,4.9c2.5,0,3.2-1.3,2.7-5.8c-1.7-16.5-11.5-30.2-26.4-36.5C136.3,84.9,126.3,83.6,124.6,85.4z"/></g></g></g>
</svg>