<?xml version="1.0" encoding="utf-8"?>
<!-- Svg Vector Icons : http://www.onlinewebfonts.com/icon -->
<!DOCTYPE svg PUBLIC "-//W3C//DTD SVG 1.1//EN" "http://www.w3.org/Graphics/SVG/1.1/DTD/svg11.dtd">
<svg version="1.1" xmlns="http://www.w3.org/2000/svg" xmlns:xlink="http://www.w3.org/1999/xlink" x="0px" y="0px" viewBox="0 0 256 256" enable-background="new 0 0 256 256" xml:space="preserve">
<metadata> Svg Vector Icons : http://www.onlinewebfonts.com/icon </metadata>
<g><g><path fill="#000000" d="M58.1,82.9c3-6,7.5-9,10.5-13.5l-1.5-9l9,1.5c4.5-3,9-6,13.5-7.5c0-3-1.5-9-4.5-12c-9-10.5-36.1-3-36.1-3s-12,25.6-3,36.1C50.6,79.9,55.1,81.4,58.1,82.9z"/><path fill="#000000" d="M43.1,140c0-6,0-10.5,1.5-16.5l-6-6l7.5-3c1.5-6,3-12,4.5-18c-3-1.5-4.5-4.5-10.5-4.5C23.5,90.4,10,113,10,113S17.5,140,31,143C35.6,141.5,38.6,141.5,43.1,140z"/><path fill="#000000" d="M124.2,46.8l4.5-6l4.5,6c6,0,12,1.5,18,3c1.5-4.5,3-9,3-13.5c0-13.5-25.6-25.6-25.6-25.6s-25.6,12-25.6,25.6c0,4.5,1.5,9,3,12C112.2,48.3,118.2,46.8,124.2,46.8z"/><path fill="#000000" d="M188.9,61.9l-1.5,7.5c4.5,4.5,7.5,9,12,13.5c4.5-1.5,6-3,9-6c9-10.5-3-36.1-3-36.1s-27.1-7.5-36.1,3c-1.5,3-3,6-4.5,10.5c6,3,10.5,6,16.5,9L188.9,61.9z"/><path fill="#000000" d="M179.9,201.7c-6,3-9,6-15,9l-3,7.5l-7.5-4.5c-6,1.5-13.5,3-18,4.5c0,4.5,0,7.5,1.5,12c4.5,13.5,33.1,15,33.1,15s19.5-19.5,15-33.1C185.9,207.7,182.9,204.7,179.9,201.7z"/><path fill="#000000" d="M223.5,156.6c-4.5-1.5-7.5-3-12-3c-1.5,6-3,12-6,16.5l3,6h-7.5c-4.5,4.5-7.5,9-12,15c3,4.5,6,7.5,9,9c12,7.5,34.6-9,34.6-9S235.5,164.1,223.5,156.6z"/><path fill="#000000" d="M246,114.5c0,0-10.5-21-30.1-21c-4.5,0-6,1.5-10.5,4.5c3,4.5,4.5,12,6,18l6,3l-6,4.5c1.5,6,1.5,12,1.5,18c4.5,1.5,7.5,1.5,12,1.5C238.5,138.5,246,120.5,246,114.5z"/><path fill="#000000" d="M205.4,131c0-42.1-34.6-76.7-76.7-76.7c-42.1,0-76.7,34.6-76.7,76.7c0,43.6,34.6,78.2,76.7,76.7C170.8,207.7,205.4,173.1,205.4,131z M98.7,185.1V94.9l60.1,45.1L98.7,185.1z M164.8,192.6l-36.1-24.1l60.1-45.1v46.6C188.9,170.1,179.9,183.6,164.8,192.6z"/><path fill="#000000" d="M50.6,179.1l3-7.5c-3-6-4.5-10.5-7.5-16.5c-4.5,0-9,1.5-12,3c-12,7.5-9,36.1-9,36.1s22.5,16.5,34.6,9c4.5-3,7.5-6,9-9c-3-4.5-7.5-9-10.5-13.5L50.6,179.1z"/><path fill="#000000" d="M97.2,216.7l-1.5-6c-6-3-12-4.5-16.5-9c-3,3-6,6-7.5,9c-6,13.5,15,33.1,15,33.1s28.6-1.5,33.1-15c1.5-4.5,1.5-7.5,1.5-12c-6,0-12-1.5-18-3L97.2,216.7z"/></g></g>
</svg>