<?xml version="1.0" encoding="utf-8"?>
<!-- Svg Vector Icons : http://www.onlinewebfonts.com/icon -->
<!DOCTYPE svg PUBLIC "-//W3C//DTD SVG 1.1//EN" "http://www.w3.org/Graphics/SVG/1.1/DTD/svg11.dtd">
<svg version="1.1" xmlns="http://www.w3.org/2000/svg" xmlns:xlink="http://www.w3.org/1999/xlink" x="0px" y="0px" viewBox="0 0 256 256" enable-background="new 0 0 256 256" xml:space="preserve">
<metadata> Svg Vector Icons : http://www.onlinewebfonts.com/icon </metadata>
<g><g><g><path fill="#000000" d="M125.9,11c-0.6,0.7-0.8,4.3-0.7,11.1c0.2,8.8,0.4,10.3,1.5,11c0.9,0.6,1.6,0.6,2.6,0c1.1-0.7,1.3-2.2,1.5-11C131,11.7,130.6,10,128,10C127.3,10,126.3,10.4,125.9,11z"/><path fill="#000000" d="M172.8,13.9c-1.4,1.1-10.1,22.1-10.1,24.4c0,1.9,1.9,3,3.8,2.3c1.3-0.5,11.3-24.3,10.6-25.4C176.1,13.6,173.9,12.9,172.8,13.9z"/><path fill="#000000" d="M79.3,14.8c-0.8,1-0.1,3,4.1,13.3c2.7,6.7,5.3,12.4,5.7,12.6c0.4,0.2,1.5,0.2,2.5,0c2.7-0.7,2.3-2.6-2.9-15.3c-4.2-10-4.9-11.4-6.6-11.6C81.2,13.7,79.8,14.1,79.3,14.8z"/><path fill="#000000" d="M44.4,44.4c-1.6,1.5-0.1,4.1,6.8,10.8c4,3.9,7.6,7.2,8,7.2c0.9,0,3.2-2.4,3.2-3.3c0-0.3-3.2-3.8-7.2-7.8C48.5,44.4,46,42.8,44.4,44.4z"/><path fill="#000000" d="M200.9,51.1c-4,4-7.2,7.7-7.2,8.1c0,1.1,2.1,3.2,3.1,3.2c0.4,0,4.1-3.2,8.1-7.2c5.9-5.8,7.2-7.5,7.1-9.1c-0.1-1.3-0.7-1.9-2.1-2.1C208.4,43.9,206.6,45.3,200.9,51.1z"/><path fill="#000000" d="M119.9,45.8c-0.6,0.1-3.6,0.7-6.6,1.1c-16.2,2.7-32.2,11.4-44.7,24.5c-11.3,11.8-18.7,25.8-21.8,41.5c-1.3,6.6-1.3,23.6,0,30.2c6.9,34.7,35.5,61.8,70.4,66.7c20.4,2.9,42.5-2.9,59.1-15.3c40.7-30.3,45.8-87,11.1-123.2c-12.1-12.6-26.3-20.7-42.8-24.2C139.9,46.1,122.5,45.1,119.9,45.8z M147.5,53.8c26.8,6.9,47.6,27.7,54.9,54.9c1.6,6.3,1.8,8.5,1.8,19.2c0,10.8-0.2,13-1.9,19.5c-7.2,27.1-27.8,47.6-55,54.9c-6.3,1.6-8.5,1.8-19.2,1.8c-10.8,0-13-0.2-19.2-1.8c-27.2-7.3-47.8-27.8-55-54.9c-1.7-6.5-1.9-8.6-1.9-19.5c0-10.8,0.2-13,1.9-19.5c8-29.9,32.2-51.6,62.9-56.5C124.3,50.9,139.3,51.7,147.5,53.8z"/><path fill="#000000" d="M14.4,79.6c-0.4,0.6-0.7,1.8-0.6,2.7c0.1,1.3,2.1,2.4,11.6,6.3c12.8,5.2,14.6,5.5,15.3,2.7c0.3-1,0.1-2.2-0.1-2.5c-0.7-0.7-23.7-10.3-24.6-10.3C15.6,78.6,14.9,79.1,14.4,79.6z"/><path fill="#000000" d="M227.4,83.6c-11.5,4.8-13,5.8-11.9,8.6c0.7,2,3.5,1.4,15-3.4c11.9-4.9,13.6-6.3,11.4-8.8c-0.7-0.7-1.6-1.4-2.1-1.3C239.4,78.7,233.8,80.9,227.4,83.6z"/><path fill="#000000" d="M10.9,125.9c-0.4,0.4-0.9,1.5-0.9,2.1c0,2.5,1.8,2.9,12.2,2.7c8.8-0.2,10.3-0.4,11-1.5c0.6-0.9,0.6-1.6,0-2.6c-0.7-1.1-2.3-1.3-11.1-1.5C14.7,125.1,11.5,125.3,10.9,125.9z"/><path fill="#000000" d="M223.3,125.9c-0.4,0.4-0.9,1.5-0.9,2.1c0,2.5,1.8,3,12.2,2.7c8.8-0.2,10.3-0.4,11-1.5c0.6-0.9,0.6-1.6,0-2.6c-0.7-1.1-2.3-1.3-11.1-1.5C227.1,125.1,224,125.3,223.3,125.9z"/><path fill="#000000" d="M25.3,167.3c-6,2.5-11.3,5.2-11.7,5.8c-0.4,0.8-0.2,1.7,0.7,2.9l1.3,1.7l12.5-5.2c12.2-5,12.5-5.2,12.5-7.3c0-1.9-0.3-2.2-2.2-2.4C37.1,162.8,31.8,164.6,25.3,167.3z"/><path fill="#000000" d="M215.4,164.1c-0.2,0.7-0.2,1.8,0,2.4c0.2,0.6,6,3.3,12.7,6.1l12.2,5l1.3-1.6c1-1.2,1.2-2.1,0.7-3c-0.7-1.5-21.9-10.4-24.6-10.4C216.6,162.7,215.7,163.2,215.4,164.1z"/><path fill="#000000" d="M51,200.9c-5.7,5.8-7.2,7.6-6.9,9c0.1,1.3,0.7,1.8,2.1,2c1.5,0.1,3.2-1.2,9.1-7.1c3.9-4.1,7.2-7.7,7.2-8.1c0-1-2.1-3.1-3.2-3.1C58.7,193.6,55,196.9,51,200.9z"/><path fill="#000000" d="M194.8,194.8c-0.7,0.6-1.2,1.5-1.2,2c0,0.5,3.2,4.2,7.3,8.2c5.8,5.7,7.6,7.2,9,6.9c1.2-0.1,1.8-0.8,2-2c0.2-1.4-1.3-3.2-6.9-9c-4-4.1-7.7-7.3-8.2-7.3C196.4,193.6,195.4,194.2,194.8,194.8z"/><path fill="#000000" d="M89.1,215.6c-0.4,0.3-3,5.9-5.8,12.5l-4.9,12l1.5,1.5c1.2,1.2,1.8,1.3,3,0.7c1.5-0.9,10.5-22,10.5-24.8C93.3,215.5,91.1,214.4,89.1,215.6z"/><path fill="#000000" d="M163.6,215.5c-0.5,0.1-1,1.2-1,2.1c0,2.7,8.9,23.9,10.4,24.6c0.9,0.5,1.8,0.4,3-0.7l1.7-1.3l-5-12.1C167.2,215,166.7,214.3,163.6,215.5z"/><path fill="#000000" d="M125.9,223.4c-0.6,0.7-0.8,4.3-0.7,11.1c0.2,8.8,0.4,10.3,1.5,11c0.9,0.6,1.6,0.6,2.6,0c1.1-0.7,1.3-2.2,1.5-11c0.2-10.5-0.2-12.2-2.8-12.2C127.3,222.4,126.3,222.8,125.9,223.4z"/></g></g></g>
</svg>