<?xml version="1.0" encoding="utf-8"?>
<!-- Svg Vector Icons : http://www.onlinewebfonts.com/icon -->
<!DOCTYPE svg PUBLIC "-//W3C//DTD SVG 1.1//EN" "http://www.w3.org/Graphics/SVG/1.1/DTD/svg11.dtd">
<svg version="1.1" xmlns="http://www.w3.org/2000/svg" xmlns:xlink="http://www.w3.org/1999/xlink" x="0px" y="0px" viewBox="0 0 256 256" enable-background="new 0 0 256 256" xml:space="preserve">
<metadata> Svg Vector Icons : http://www.onlinewebfonts.com/icon </metadata>
<g><g><g><path fill="#000000" d="M120.2,10.5c-7.5,1.4-14.2,6.1-17.1,12c-0.8,1.5-1.4,2.9-1.4,2.9c-0.1,0-1.4-0.3-3.2-0.8c-8.7-2.7-17.7,0.1-25.6,7.8c-6.3,6.2-8.9,11.5-9.3,18.5c-0.2,3.8-0.1,4.9,0.9,7.9l1.2,3.4l-3.4,1.6c-5.7,2.7-9.3,6.9-11.7,13.8c-1.4,4-1.8,13.4-0.7,18.4c1.7,7.6,6.1,13.5,12.1,16.4c2.2,1,2.9,1.6,2.7,2.2c-1.4,3.3-1.9,5.3-2.1,9.1c-0.1,3.6,0,5,0.9,7.6c2.8,8.4,10.9,16.9,19.3,20.2c4.1,1.6,10.2,1.8,14.7,0.5c2-0.6,3.6-1,3.7-0.9c0,0.1,0.7,1.4,1.4,3c3,6.6,9,10.7,18.7,12.9l1.3,0.3v10.5v10.6l-7.2-2.5c-4-1.3-10.4-3.1-14.4-3.9c-4-0.8-9.2-2.3-11.6-3.2c-2.4-1-5.5-1.9-6.8-2c-2.1-0.2-2.5-0.1-4,1.5c-2.1,2.1-2.2,3.2-0.7,11.5c1.1,6.4,4,15.6,6.5,20.4c2.2,4.4,5.8,9.6,8.8,12.7c4.6,4.8,12.1,7.3,23,7.8l6.5,0.3l0,5c0,6.4,0.6,8.1,3.1,9.4c1.6,0.8,2.2,0.8,3.8,0.3c3-0.9,3.4-2.1,3.4-8.6v-5.6l3.8,0.2c13.7,0.9,26-10.4,32.5-30.2c2-6.1,3.4-13,3.6-18.3c0.1-3.1,0.1-3.2-1.7-4.9c-1.7-1.5-2.2-1.7-3.9-1.5c-1.1,0.1-4.2,1.1-6.8,2.2c-2.7,1.1-7.5,2.6-10.8,3.3c-11.1,2.4-12.7,2.8-14.5,4c-0.9,0.6-1.8,1.2-2,1.2c-0.1,0-0.1-4.6-0.1-10.1l0.1-10.2l3.1-0.8c7.1-2,12.5-6.2,15.4-12.2c0.9-1.8,1.7-3.4,1.7-3.5c0-0.1,1.6,0.5,3.5,1.2c2.8,1.1,4.2,1.3,7.8,1.3c7.3,0,12.9-2.6,19.4-9.1c4.1-4.1,7-8.6,8.3-12.8c1.2-3.9,1.1-9.8-0.3-13.9c-0.6-1.9-1-3.4-1-3.5c0.1,0,1.5-0.7,3.1-1.5c6-3,10.2-8.8,11.9-16.3c1.1-4.9,0.7-14.4-0.7-18.4c-2.5-6.9-6.2-11.3-11.8-13.9c-1.9-0.8-3.4-1.6-3.5-1.7c-0.1,0,0.3-1.4,0.9-3c1.4-3.7,1.6-10,0.4-13.9c-2.6-8.3-11.2-17.3-20-20.8c-3.9-1.5-10.9-1.5-15.1,0c-1.6,0.6-3.1,1.1-3.3,1.1s-0.9-1.3-1.7-2.9c-2.7-5.4-8.4-9.9-15-11.7C132.4,9.9,124.5,9.7,120.2,10.5z M139.6,48.9c11.6,3.4,20.9,11.3,26,22.1c2.7,5.7,3.7,9.6,4.1,15.9c1.1,19.7-12.1,37.5-31.6,42.5c-5.5,1.4-13.7,1.5-19.5,0.1c-14.7-3.5-25.9-14.1-30.5-28.9c-1.5-4.9-1.9-14.3-0.8-20c2.9-14.3,13.5-26.3,27.6-31.2C122.4,46.8,131.8,46.6,139.6,48.9z M97.1,192c3.4,0.8,7.9,2.1,9.8,2.8c4,1.4,14,6.3,15.2,7.4c0.7,0.6,0.8,1.9,0.7,8.6c0,4.5-0.2,8-0.5,8.3c-0.9,0.8-7.2,2.5-9.6,2.5c-7.7,0-17.5-11.4-22.3-25.7c-1.7-5.2-1.8-6-0.5-5.6C90.4,190.3,93.6,191.1,97.1,192z M162.1,191.6c-0.1,0.9-0.9,3.7-1.7,6.3c-2.8,8.8-8.1,17.3-12.7,20.4c-4.7,3.1-11.8,4.3-13.8,2.3c-0.9-0.9-1-1.6-1-10.3V201l2.3-2.1c3-2.8,6.5-4.2,13.3-5.8c3.2-0.6,7.4-1.6,9.3-2.1C162.6,189.7,162.5,189.7,162.1,191.6z"/></g></g></g>
</svg>