<?xml version="1.0" encoding="utf-8"?>
<!-- Svg Vector Icons : http://www.onlinewebfonts.com/icon -->
<!DOCTYPE svg PUBLIC "-//W3C//DTD SVG 1.1//EN" "http://www.w3.org/Graphics/SVG/1.1/DTD/svg11.dtd">
<svg version="1.1" xmlns="http://www.w3.org/2000/svg" xmlns:xlink="http://www.w3.org/1999/xlink" x="0px" y="0px" viewBox="0 0 256 256" enable-background="new 0 0 256 256" xml:space="preserve">
<metadata> Svg Vector Icons : http://www.onlinewebfonts.com/icon </metadata>
<g><g><g><path fill="#000000" d="M119.7,23c-4.4,7.1-8,13.1-8,13.1c0.1,0.1,1.7-0.2,3.7-0.5c4.6-0.8,20.6-0.8,25.1,0c2,0.3,3.6,0.5,3.7,0.5C144.4,36,128.3,10,128,10C127.8,10,124.1,15.8,119.7,23z"/><path fill="#000000" d="M82.7,19.9C82,23,78,48.5,78.3,48.8c0.1,0.1,2-0.8,4.2-2c7-4,21-9.4,24.3-9.4c0.5,0,1-0.2,1-0.4s-4.8-3.8-10.5-8.1c-5.8-4.2-11.4-8.2-12.4-9L83,18.6L82.7,19.9z"/><path fill="#000000" d="M164.2,25.4c-5,3.6-10.7,7.6-12.6,9.1L148,37l4.7,1.3c7.6,2,14.4,4.8,21.9,9c3.8,2.1,4,2.2,3.7,1c-0.1-0.7-1.3-7.6-2.5-15.3c-1.3-7.7-2.3-14-2.4-14.1C173.4,18.9,169.2,21.8,164.2,25.4z"/><path fill="#000000" d="M115.1,42c-13.4,2.2-24.3,6.5-35.5,13.9c-19.3,12.9-32.8,33.7-37.1,56.7c-1.5,8.1-1.4,23.6,0.2,31.7c7,35,33.2,61.3,68.4,68.9c7.6,1.6,24.9,1.8,32.5,0.3c12-2.4,24.8-7.7,34.4-14.4c6.7-4.6,17.6-15.8,22.1-22.5c6.3-9.6,10.7-19.8,13.2-30.9c1-4.6,1.2-7,1.2-17.7c0-13.6-0.7-17.8-4.2-28.2c-8.3-24.5-28.7-45.1-52.9-53.6c-10-3.6-15.4-4.4-27.2-4.7C123,41.4,118.1,41.5,115.1,42z"/><path fill="#000000" d="M44.7,45.7c0.2,0.7,1.7,7.4,3.5,14.9c1.8,7.5,3.3,13.6,3.5,13.6c0.2-0.1,1.4-1.5,2.7-3.3c3.3-4.4,10.3-11.5,15.4-15.5c2.3-1.8,4.2-3.5,4.3-3.7c0.1-0.2-6.1-1.9-13.7-3.6c-7.6-1.8-14.4-3.3-14.9-3.5C44.5,44.4,44.4,44.6,44.7,45.7z"/><path fill="#000000" d="M195.9,48c-7.7,1.9-14.1,3.5-14,3.7c0.1,0.2,2,1.9,4.3,3.7c5.2,4.1,11.9,10.9,15.2,15.3c1.4,1.9,2.6,3.5,2.9,3.5s2.8-10.4,7-28.4c0.2-0.8,0.1-1.2-0.4-1.2C210.4,44.6,203.7,46.1,195.9,48z"/><path fill="#000000" d="M34.3,80c-8,1.3-14.7,2.5-14.9,2.6c-0.5,0.2,16.6,24.2,17.5,24.5c0.3,0.1,0.6-0.3,0.6-0.8c0.1-3.4,7.7-21.9,11-26.6c1.1-1.5,1.3-2.1,0.7-2C48.8,77.6,42.2,78.7,34.3,80z"/><path fill="#000000" d="M207.5,79.5c3.6,5.1,11.1,23.5,11.1,27.1c0,0.6,0.3,1,0.5,0.9c0.7-0.2,18.1-24.2,17.8-24.5c-0.2-0.2-28.7-5-29.8-5.1C206.6,78,206.7,78.5,207.5,79.5z"/><path fill="#000000" d="M23,119.7c-7.2,4.4-13,8.1-13,8.3c0,0.3,26,16.4,26.1,16.3c0.1-0.1-0.2-1.7-0.5-3.7c-0.8-4.6-0.8-20.6,0-25.1c0.3-2,0.5-3.6,0.5-3.7C36.1,111.7,30.2,115.3,23,119.7z"/><path fill="#000000" d="M219.9,112.7c0.2,0.7,0.6,4.5,0.9,8.5c0.6,6.9,0.1,17.9-1,22c-0.3,1.1,0.3,0.9,5.1-2.1c3-1.8,9-5.5,13.2-8.1c4.3-2.6,7.8-4.9,7.8-5c0-0.2-3.1-2.2-7-4.6c-3.8-2.3-9.8-6-13.2-8.1C220.4,112,219.6,111.6,219.9,112.7z"/><path fill="#000000" d="M27.7,160.5c-7.3,10-8.7,12.3-8,12.6c1.3,0.5,28.8,4.9,29,4.6c0.2-0.1-0.8-2.1-2.2-4.6c-1.3-2.4-3.3-6.4-4.4-8.9c-1.9-4.5-4.8-13.6-4.8-15.2c0-0.4-0.2-0.8-0.4-0.8C36.7,148.3,32.5,153.8,27.7,160.5z"/><path fill="#000000" d="M218.1,151.4c-1.2,5.7-3.8,12.4-7.7,19.8c-3.3,6.4-3.6,7.2-2.6,7c1.2-0.3,28.8-4.7,29.3-4.7c0.3,0-16.1-23-17.4-24.3C218.8,148.3,218.8,148.4,218.1,151.4z"/><path fill="#000000" d="M47.9,196.4c-1.9,8.1-3.3,14.8-3.2,14.9c0.3,0.3,29.4-6.6,29.4-7c0-0.2-1.5-1.5-3.4-2.9c-4.1-3-12.6-11.5-16.1-16.1c-1.4-1.8-2.7-3.4-2.9-3.5C51.5,181.9,49.8,188.4,47.9,196.4z"/><path fill="#000000" d="M202.1,184.4c-2.7,3.8-12.3,13.6-16.6,16.8c-2.1,1.6-3.7,3-3.7,3.1c0,0.4,29.2,7.3,29.4,7c0.3-0.3-6.5-29.5-6.9-29.5C204.1,181.8,203.1,183,202.1,184.4z"/><path fill="#000000" d="M77.8,207.7c0.2,0.7,1.3,7.6,2.5,15.3c1.2,7.7,2.3,14,2.3,14.1c0.2,0.1,23.8-17,24.7-17.8c0.5-0.5,0.4-0.7-0.5-0.7c-3.7,0-22.1-7.5-27.1-11C77.7,206.2,77.4,206.2,77.8,207.7z"/><path fill="#000000" d="M176.6,207.5c-4.3,3.2-23.6,11.1-27.2,11.1c-0.6,0-1,0.2-0.9,0.5c0.2,0.6,24.2,18.1,24.5,17.8c0.3-0.3,5.1-29.5,4.9-30C177.7,206.8,177.2,207,176.6,207.5z"/><path fill="#000000" d="M115.3,225.8c2.1,3.5,5.8,9.4,8.1,13.2c2.4,3.8,4.4,7,4.6,7s2.4-3.5,5.1-7.8c2.6-4.3,6.3-10.2,8.1-13.2c3-4.8,3.2-5.4,2.1-5.1c-4.1,1.1-15.2,1.6-22,1c-4-0.3-7.8-0.8-8.5-0.9C111.6,219.6,112,220.4,115.3,225.8z"/></g></g></g>
</svg>